<?xml version="1.0" encoding="utf-8"?>
<!-- Generator: Adobe Illustrator 16.0.0, SVG Export Plug-In . SVG Version: 6.00 Build 0)  -->
<!DOCTYPE svg PUBLIC "-//W3C//DTD SVG 1.1//EN" "http://www.w3.org/Graphics/SVG/1.1/DTD/svg11.dtd">
<svg version="1.1" id="Layer_1" xmlns="http://www.w3.org/2000/svg" xmlns:xlink="http://www.w3.org/1999/xlink" x="0px" y="0px"
	 width="32px" height="32px" viewBox="0 0 32 32" enable-background="new 0 0 32 32" xml:space="preserve">
<g>
	<path fill="#FFFFFF" d="M-324-289c0-0.553-0.447-1-1-1h-5.343c-1.061,0-2.078,0.421-2.828,1.171l-4.122,4.122
		c-0.391,0.391-1.023,0.391-1.414,0l-4.122-4.122c-0.75-0.75-1.768-1.171-2.828-1.171H-351c-0.553,0-1,0.447-1,1l-2,22
		c0,0.553,0.447,1,1,1h7.274c0.517,0,0.95-0.395,0.996-0.91c0.192-2.155,0.443-5.14,0.595-7.653
		c0.022-0.364-0.157-0.712-0.465-0.907c-0.84-0.53-1.399-1.463-1.399-2.531c0-1.657,1.343-3,3-3s3,1.343,3,3
		c0,0.902-0.402,1.704-1.033,2.251c-0.271,0.235-0.396,0.6-0.326,0.953l0.01,0.05c0.319,1.598,1.721,2.746,3.349,2.746
		c1.629,0,3.031-1.15,3.35-2.746l0.01-0.051c0.07-0.353-0.055-0.716-0.327-0.951c-0.631-0.547-1.033-1.349-1.033-2.252
		c0-1.657,1.342-3,3-3s3,1.343,3,3c0,1.038-0.526,1.95-1.326,2.488c-0.296,0.199-0.464,0.541-0.44,0.897
		c0.142,2.134,0.327,4.978,0.479,7.671c0.03,0.529,0.467,0.943,0.997,0.943h7.29c0.553,0,1-0.447,1-1L-324-289z"/>
	<circle fill="#FFFFFF" cx="-343" cy="-278" r="1"/>
	<circle fill="#FFFFFF" cx="-333" cy="-278" r="1"/>
	<path fill="#FFFFFF" d="M-334.041-269.429c0.021-0.144-0.022-0.289-0.117-0.398c-0.095-0.11-0.233-0.172-0.378-0.172h-6.928
		c-0.145,0-0.283,0.063-0.378,0.172c-0.095,0.109-0.138,0.255-0.118,0.398c0.277,1.938,1.944,3.429,3.959,3.429
		S-334.317-267.491-334.041-269.429z"/>
</g>
</svg>
